<svg width="505" height="436" viewBox="0 0 505 436" fill="none" xmlns="http://www.w3.org/2000/svg">
<path d="M481.92 182.863L145.939 11.6721C133.288 5.22578 117.878 10.1148 111.52 22.5921L11.756 218.39C5.39849 230.868 10.5009 246.208 23.1525 252.654L359.133 423.845C371.785 430.291 387.195 425.402 393.552 412.925L493.316 217.127C499.674 204.65 494.571 189.309 481.92 182.863Z" fill="#001161"/>
<path opacity="0.35" d="M479.618 187.382L143.637 16.1909C133.516 11.0339 121.188 14.9451 116.102 24.9269L16.338 220.725C11.252 230.707 15.334 242.979 25.4552 248.136L361.436 419.327C371.557 424.484 383.885 420.573 388.971 410.591L488.735 214.793C493.821 204.811 489.739 192.539 479.618 187.382Z" stroke="white" stroke-width="3.45042" stroke-miterlimit="10"/>
<path opacity="0.5" d="M296.871 247.747L102.15 147.033C100.027 145.952 99.1915 143.363 100.274 141.278C101.34 139.184 103.941 138.384 106.056 139.481L300.777 240.195C302.899 241.276 303.735 243.865 302.653 245.951C301.586 248.044 298.986 248.844 296.871 247.747Z" fill="#AFD7FF"/>
<path opacity="0.5" d="M207.413 248.969L82.7733 184.494C80.6505 183.413 79.815 180.824 80.8969 178.739C81.9636 176.645 84.5641 175.845 86.6793 176.942L211.319 241.416C213.441 242.498 214.277 245.086 213.195 247.172C212.128 249.266 209.528 250.066 207.413 248.969Z" fill="#AFD7FF"/>
<path opacity="0.5" d="M66.5224 234.666L58.8484 230.699C56.7256 229.617 55.89 227.029 56.972 224.943C58.0387 222.849 60.6392 222.05 62.7543 223.146L70.4283 227.113C72.5511 228.195 73.3867 230.783 72.3047 232.869C71.238 234.963 68.6375 235.762 66.5224 234.666Z" fill="#AFD7FF"/>
<path opacity="0.5" d="M219.306 313.708L204.019 305.805C201.896 304.724 201.061 302.135 202.143 300.049C203.209 297.956 205.81 297.156 207.925 298.253L223.212 306.156C225.335 307.237 226.17 309.826 225.088 311.911C224.022 314.005 221.421 314.805 219.306 313.708ZM188.732 297.902L173.445 289.999C171.323 288.918 170.487 286.329 171.569 284.244C172.636 282.15 175.236 281.35 177.351 282.447L192.638 290.35C194.761 291.431 195.597 294.02 194.515 296.106C193.448 298.199 190.847 298.999 188.732 297.902ZM158.174 282.104L142.887 274.201C140.764 273.12 139.928 270.531 141.01 268.446C142.077 266.352 144.678 265.552 146.793 266.649L162.08 274.552C164.202 275.633 165.038 278.222 163.956 280.308C162.889 282.401 160.289 283.201 158.174 282.104ZM127.615 266.306L112.328 258.403C110.206 257.322 109.37 254.733 110.452 252.648C111.519 250.554 114.119 249.754 116.234 250.851L131.521 258.754C133.644 259.835 134.48 262.424 133.398 264.51C132.331 266.603 129.73 267.403 127.615 266.306ZM97.0414 250.501L81.7545 242.598C79.6317 241.516 78.7962 238.928 79.8781 236.842C80.9448 234.748 83.5453 233.948 85.6605 235.045L100.947 242.948C103.07 244.03 103.906 246.618 102.824 248.704C101.757 250.797 99.1565 251.597 97.0414 250.501Z" fill="#AFD7FF"/>
<path opacity="0.5" d="M242.251 325.57L234.577 321.603C232.455 320.521 231.619 317.932 232.701 315.847C233.768 313.753 236.368 312.953 238.483 314.05L246.157 318.017C248.28 319.099 249.116 321.687 248.034 323.773C246.967 325.866 244.367 326.666 242.251 325.57Z" fill="#AFD7FF"/>
<path d="M211.841 96.398C211.426 97.2113 199.033 121.119 199.808 119.597L191.766 135.192C187.906 142.768 178.552 145.61 170.947 141.734C170.107 141.306 131.615 121.371 134.05 122.631C128.706 119.756 127.621 119.393 126.041 118.152C120.287 113.702 118.293 105.686 121.792 99.0451C122.206 98.2318 143.201 57.6681 141.866 60.2509C145.457 53.2022 154.461 49.6132 162.647 53.784C163.487 54.212 201.979 74.1472 199.528 72.8793C204.323 75.3985 205.82 75.8957 207.576 77.2834C213.33 81.7331 215.278 89.84 211.841 96.398Z" fill="#F8C73B"/>
<path d="M202.678 114.154L201.066 117.127L130.877 81.364L132.488 78.3906L202.662 114.146L202.678 114.154Z" fill="#EF9F27"/>
<path d="M205.134 75.7357L171.675 141.403C170.696 141.512 170.269 141.029 168.459 140.163L202.203 73.9385C203.974 74.9169 204.601 74.9706 205.134 75.7357Z" fill="#EF9F27"/>
<path d="M165.23 55.1008L131.479 121.341C129.525 120.193 129.066 120.149 128.586 119.468L162.053 53.7855C163.1 53.8448 163.466 54.2589 165.23 55.1008Z" fill="#EF9F27"/>
<path d="M322.566 366.644C332.553 371.733 344.715 367.874 349.734 358.024C354.753 348.174 350.726 336.067 340.738 330.978C330.75 325.889 318.589 329.748 313.57 339.598C308.551 349.448 312.578 361.555 322.566 366.644Z" fill="#FFBD00"/>
<path d="M343.368 377.243C353.355 382.332 365.517 378.474 370.536 368.624C375.555 358.773 371.528 346.667 361.54 341.578C351.552 336.489 339.391 340.347 334.372 350.197C329.353 360.047 333.38 372.154 343.368 377.243Z" fill="#FFDE00"/>
<g opacity="0.1">
<path d="M91.5712 286.925L166.853 325.871L373.594 128.861L298.312 89.9153L91.5712 286.925Z" fill="white"/>
<path d="M208.918 347.628L246.571 367.097L453.312 170.087L415.66 150.617L208.918 347.628Z" fill="white"/>
</g>
</svg>
