<svg width="218" height="217" viewBox="0 0 218 217" fill="none" xmlns="http://www.w3.org/2000/svg">
<path d="M199.073 108.765L208.37 108.793" stroke="#F03B50" stroke-width="18.0954" stroke-linecap="round" stroke-linejoin="round"/>
<path d="M27.7691 101.475L32.8497 103.609C33.6019 103.925 33.5987 104.989 32.8435 105.301L27.7503 107.404C26.9982 107.713 26.9951 108.778 27.7441 109.096L32.8248 111.23C33.5769 111.546 33.5738 112.61 32.8185 112.922L27.7222 115.029C26.9701 115.337 26.967 116.402 27.716 116.72L29.3638 117.413L194.452 117.903L194.505 99.6055L29.4137 99.1061L27.7691 99.7833C27.0169 100.092 27.0138 101.156 27.7628 101.475L27.7691 101.475Z" fill="#F6AF34"/>
<path d="M6.99152 109.355L5.85242 108.509C5.55282 108.384 5.55595 107.963 5.85555 107.838L6.99777 107.002C7.29737 106.877 7.30049 106.456 7.00089 106.331L6.26749 105.841L0.834149 107.46C0.138206 107.67 0.131962 108.656 0.831025 108.868L6.24876 110.522L6.98841 110.032C7.288 109.907 7.29113 109.486 6.99153 109.361L6.99152 109.355Z" fill="#333333"/>
<path d="M29.3659 117.39L27.7181 116.697C26.966 116.382 26.9691 115.318 27.7243 115.006L32.8206 112.899C33.5728 112.59 33.5759 111.526 32.8269 111.208L27.7462 109.073C26.9941 108.758 26.9972 107.694 27.7524 107.382L32.8456 105.278C33.5977 104.969 33.6008 103.905 32.8518 103.587L27.7711 101.452C27.019 101.137 27.0221 100.073 27.7774 99.7606L29.4221 99.0834L28.4265 99.0803L6.27494 105.821L7.00833 106.311C7.30793 106.436 7.30481 106.857 7.00522 106.982L5.86299 107.819C5.5634 107.943 5.56027 108.365 5.85987 108.49L6.99898 109.335C7.29858 109.46 7.29545 109.881 6.99585 110.006L6.25622 110.496L28.3735 117.371L29.3752 117.375L29.3659 117.39Z" fill="#FF8158"/>
<path d="M190.097 99.5879C188.686 104.019 188.468 112.121 190.044 117.885" stroke="#C6C6C6" stroke-width="3.5308" stroke-linecap="round" stroke-linejoin="round"/>
<path d="M193.011 99.5912C191.6 104.023 191.382 112.124 192.958 117.889" stroke="#C6C6C6" stroke-width="3.5308" stroke-linecap="round" stroke-linejoin="round"/>
<path d="M195.93 99.6055C194.52 104.037 194.301 112.139 195.877 117.903" stroke="#C6C6C6" stroke-width="3.5308" stroke-linecap="round" stroke-linejoin="round"/>
<path d="M198.845 99.6084C197.434 104.04 197.216 112.142 198.792 117.906" stroke="#C6C6C6" stroke-width="3.5308" stroke-linecap="round" stroke-linejoin="round"/>
<g opacity="0.3">
<path d="M182.819 117.86L105.872 117.654L28.9254 117.392C28.6757 117.392 28.4354 117.364 28.2013 117.31L28.1608 117.301C27.134 117.061 26.1353 116.693 25.1242 116.38L22.0939 115.429L16.0364 113.541L3.89951 109.836C2.99135 109.558 2.47953 108.597 2.75416 107.686C3.01007 106.843 3.85581 106.341 4.70155 106.494L17.1973 108.703L23.4546 109.774L26.5847 110.301C27.6271 110.482 28.6819 110.607 29.7087 110.86L28.9441 110.769L105.891 110.975L182.838 111.237C184.667 111.244 186.143 112.732 186.137 114.561C186.13 116.39 184.648 117.866 182.819 117.86Z" fill="#1D1D1B"/>
</g>
<path opacity="0.3" d="M183.649 102.223L35.8002 101.777" stroke="white" stroke-width="5.2962" stroke-linecap="round" stroke-linejoin="round"/>
<path opacity="0.6" d="M189.015 111.168C189.153 113.521 189.48 115.846 190.036 117.881" stroke="#1D1D1B" stroke-width="3.5308" stroke-linecap="round" stroke-linejoin="round"/>
<path opacity="0.2" d="M190.097 99.5879C189.776 100.602 189.516 101.804 189.323 103.127" stroke="white" stroke-width="3.5308" stroke-linecap="round" stroke-linejoin="round"/>
<path opacity="0.6" d="M191.93 111.184C192.064 113.534 192.398 115.859 192.951 117.89" stroke="#1D1D1B" stroke-width="3.5308" stroke-linecap="round" stroke-linejoin="round"/>
<path opacity="0.2" d="M193.011 99.5912C192.689 100.605 192.43 101.807 192.237 103.13" stroke="white" stroke-width="3.5308" stroke-linecap="round" stroke-linejoin="round"/>
<path opacity="0.6" d="M194.852 111.196C194.986 113.546 195.317 115.868 195.876 117.9" stroke="#1D1D1B" stroke-width="3.5308" stroke-linecap="round" stroke-linejoin="round"/>
<path opacity="0.2" d="M195.93 99.6055C195.609 100.62 195.35 101.821 195.156 103.144" stroke="white" stroke-width="3.5308" stroke-linecap="round" stroke-linejoin="round"/>
<path opacity="0.6" d="M197.771 111.209C197.905 113.559 198.236 115.881 198.795 117.913" stroke="#1D1D1B" stroke-width="3.5308" stroke-linecap="round" stroke-linejoin="round"/>
<path opacity="0.2" d="M198.845 99.6084C198.524 100.623 198.265 101.824 198.071 103.147" stroke="white" stroke-width="3.5308" stroke-linecap="round" stroke-linejoin="round"/>
<path opacity="0.3" d="M204.232 114.525L208.177 114.537" stroke="#1D1D1B" stroke-width="6.62026" stroke-linecap="round" stroke-linejoin="round"/>
<path opacity="0.3" d="M203.445 102.367L208.918 102.386" stroke="white" stroke-width="5.2962" stroke-linecap="round" stroke-linejoin="round"/>
<path opacity="0.3" d="M213.824 105.707C214.57 106.028 215.157 109.086 214.42 110.847" stroke="white" stroke-width="5.2962" stroke-linecap="round" stroke-linejoin="round"/>
</svg>
