<svg width="144" height="34" viewBox="0 0 144 34" fill="none" xmlns="http://www.w3.org/2000/svg">
<rect x="0.5" y="0.5" width="143" height="33" rx="5.5" fill="#C9C9C9" stroke="black"/>
<path d="M59.6501 18.08C59.6501 19.216 59.2661 20.176 58.5141 20.992C57.7621 21.808 56.7861 22.208 55.6021 22.208C54.4181 22.208 53.4421 21.808 52.6901 20.992C51.9381 20.176 51.5541 19.216 51.5541 18.08C51.5541 16.928 51.9221 15.952 52.6741 15.152C53.4261 14.352 54.4021 13.952 55.6021 13.952C56.8021 13.952 57.7621 14.352 58.5141 15.152C59.2661 15.952 59.6501 16.928 59.6501 18.08ZM57.2341 16.256C56.8021 15.76 56.2581 15.52 55.6021 15.52C54.9461 15.52 54.4021 15.76 53.9701 16.256C53.5381 16.736 53.3301 17.344 53.3301 18.08C53.3301 18.816 53.5381 19.424 53.9701 19.92C54.4021 20.4 54.9461 20.64 55.6021 20.64C56.2581 20.64 56.8021 20.4 57.2341 19.92C57.6661 19.424 57.8901 18.816 57.8901 18.08C57.8901 17.344 57.6661 16.736 57.2341 16.256ZM68.2571 14.16L65.3931 22.064H63.2491L60.4491 14.16H62.4171L64.2091 19.92L64.3371 20.32H64.3531L64.4811 19.92L66.2891 14.16H68.2571ZM75.7421 11.008L73.8381 13.072H72.1421L70.3821 11.008H71.9821L73.0061 12.128L74.0621 11.008H75.7421ZM73.0221 13.952C74.0781 13.952 74.9581 14.32 75.6781 15.072C76.3981 15.824 76.7661 16.768 76.7661 17.936C76.7661 18.24 76.7501 18.528 76.7341 18.784H70.9421C70.9901 19.28 71.2301 19.712 71.6301 20.08C72.0461 20.448 72.5581 20.624 73.1501 20.624C73.8541 20.624 74.4941 20.304 75.0861 19.664L76.1901 20.736C75.4381 21.712 74.3981 22.192 73.0861 22.192C71.8861 22.192 70.9261 21.792 70.1741 21.008C69.4221 20.208 69.0541 19.232 69.0541 18.08C69.0541 16.928 69.4221 15.952 70.1741 15.152C70.9261 14.352 71.8701 13.952 73.0221 13.952ZM73.0381 15.52C72.4461 15.52 71.9661 15.696 71.5661 16.064C71.1821 16.416 70.9741 16.816 70.9421 17.264H75.0061C74.9901 16.768 74.7981 16.368 74.3981 16.032C74.0141 15.696 73.5661 15.52 73.0381 15.52ZM83.7664 11.008L81.8624 13.072H80.1664L78.4064 11.008H80.0064L81.0304 12.128L82.0864 11.008H83.7664ZM82.6144 13.984C82.7584 13.984 82.9344 14 83.1424 14.016V15.712C82.9024 15.664 82.6784 15.632 82.4544 15.632C81.3664 15.632 80.4544 16.24 80.4544 17.344V22H78.6944V14.16H80.3744V14.288V14.848C81.0304 14.272 81.7824 13.984 82.6144 13.984ZM86.4727 11.968C86.4727 12.528 86.0247 12.976 85.4967 12.976C84.9367 12.976 84.5047 12.528 84.5047 11.968C84.5047 11.44 84.9687 10.976 85.4967 10.976C86.0247 10.976 86.4727 11.44 86.4727 11.968ZM86.3767 14.16V22H84.6167V14.16H86.3767ZM91.1037 12.096V14.16H92.7837V15.68H91.1037V22H89.3437V15.68H88.1597V14.16H89.3437V12.096H91.1037Z" fill="black"/>
</svg>
